<?xml version="1.0" encoding="UTF-8" standalone="no"?>
<!-- Generator: Adobe Illustrator 18.0.0, SVG Export Plug-In . SVG Version: 6.00 Build 0)  -->
<svg xmlns:dc="http://purl.org/dc/elements/1.1/" xmlns:cc="http://creativecommons.org/ns#" xmlns:rdf="http://www.w3.org/1999/02/22-rdf-syntax-ns#" xmlns:svg="http://www.w3.org/2000/svg" xmlns="http://www.w3.org/2000/svg" xmlns:sodipodi="http://sodipodi.sourceforge.net/DTD/sodipodi-0.dtd" xmlns:inkscape="http://www.inkscape.org/namespaces/inkscape" version="1.1" id="Capa_1" x="0px" y="0px" viewBox="0 0 330 330" style="enable-background:new 0 0 330 330;" xml:space="preserve" sodipodi:docname="enter.svg" inkscape:version="0.92.3 (2405546, 2018-03-11)"><metadata id="metadata43"><rdf:RDF><cc:Work rdf:about=""><dc:format>image/svg+xml</dc:format><dc:type rdf:resource="http://purl.org/dc/dcmitype/StillImage"/></cc:Work></rdf:RDF></metadata><defs id="defs41"/><sodipodi:namedview pagecolor="#ffffff" bordercolor="#666666" borderopacity="1" objecttolerance="10" gridtolerance="10" guidetolerance="10" inkscape:pageopacity="0" inkscape:pageshadow="2" inkscape:window-width="1853" inkscape:window-height="1025" id="namedview39" showgrid="false" inkscape:zoom="0.71515152" inkscape:cx="-80.402541" inkscape:cy="165" inkscape:window-x="67" inkscape:window-y="27" inkscape:window-maximized="1" inkscape:current-layer="g854"/>
<g id="g6">
	
	
<g id="g854" style="stroke:#1e1e1e;stroke-opacity:1"><path inkscape:connector-curvature="0" id="path2" d="M 278.4322,155.59122 H 94.647203 l 44.391997,-44.392 c 5.858,-5.858 5.858,-15.355 0,-21.213 -5.857,-5.858 -15.355,-5.858 -21.213,0 l -69.997997,69.998 c -5.858,5.857 -5.858,15.355 0,21.213 l 69.997997,70.002 c 2.929,2.929 6.767,4.394 10.606,4.394 3.838,-0.001 7.678,-1.465 10.606,-4.393 5.857,-5.858 5.858,-15.355 0,-21.213 l -44.393997,-44.396 H 278.4322 c 8.284,0 15,-6.716 15,-15 0,-8.284 -6.716,-15 -15,-15 z" style="stroke:none;stroke-opacity:1;fill:#404244;fill-opacity:1"/><path inkscape:connector-curvature="0" id="path850" d="m 278.41498,76.04958 2.3137,91.29424" style="fill:#404244;fill-opacity:1;stroke:#404244;stroke-width:25.12607384;stroke-linecap:round;stroke-linejoin:miter;stroke-miterlimit:4;stroke-dasharray:none;stroke-opacity:1"/></g></g>
<g id="g8">
</g>
<g id="g10">
</g>
<g id="g12">
</g>
<g id="g14">
</g>
<g id="g16">
</g>
<g id="g18">
</g>
<g id="g20">
</g>
<g id="g22">
</g>
<g id="g24">
</g>
<g id="g26">
</g>
<g id="g28">
</g>
<g id="g30">
</g>
<g id="g32">
</g>
<g id="g34">
</g>
<g id="g36">
</g>
</svg>