<svg width="20" height="20" fill="none" xmlns="http://www.w3.org/2000/svg">
    <path d="M11 18v-1.333a2.76 2.76 0 0 0-.732-1.886A2.424 2.424 0 0 0 8.5 14h-5c-.663 0-1.299.281-1.768.781A2.76 2.76 0 0 0 1 16.667V18M5.5 11a2.5 2.5 0 1 0 0-5 2.5 2.5 0 0 0 0 5zM15 18v-1.363c0-.604-.197-1.19-.56-1.668A2.663 2.663 0 0 0 13 14M10 6c.572.142 1.08.465 1.441.918.362.452.559 1.009.559 1.582 0 .573-.197 1.13-.559 1.582-.362.453-.869.776-1.441.918" stroke="#404244" stroke-linecap="round" stroke-linejoin="round"/>
    <path d="M16 1v6M19 4h-6" stroke="#404244" stroke-linecap="round"/>
</svg>
