<svg width="13" height="13" fill="none" xmlns="http://www.w3.org/2000/svg">
    <path clip-rule="evenodd" d="M12.381 6.5C12.381 3.4 9.748.886 6.5.886S.62 3.4.62 6.5c0 3.1 2.632 5.614 5.88 5.614 3.248 0 5.881-2.514 5.881-5.614z" stroke="#A1A3A7" stroke-width=".75" stroke-linejoin="round"/>
    <path d="M7.43 12.114c.924-1.172 1.855-3 1.855-5.613 0-2.613-.932-4.442-1.857-5.615M5.57 12.114c-.924-1.172-1.855-3-1.855-5.613 0-2.613.932-4.442 1.857-5.615" stroke="#A1A3A7" stroke-width=".75" stroke-linejoin="round"/>
    <path d="M4.643 8.345c.599-.094 1.233-.145 1.902-.145.635 0 1.24.046 1.812.132M1.238 9.16a14.731 14.731 0 0 1 1.857-.592M4.643 4.67c.6.074 1.233.114 1.902.114.636 0 1.24-.036 1.812-.102M1.238 3.545c.566.223 1.184.424 1.857.591M11.762 9.16a14.73 14.73 0 0 0-1.857-.592M11.762 3.545c-.566.223-1.184.424-1.857.591" stroke="#A1A3A7" stroke-width=".75" stroke-linejoin="round"/>
</svg>
