<svg width="18" height="18" fill="none" xmlns="http://www.w3.org/2000/svg">
    <path d="M17 9c0-3.771 0-5.657-1.172-6.828C14.657 1 12.771 1 9 1 5.229 1 3.343 1 2.172 2.172 1 3.343 1 5.229 1 9v6c0 .943 0 1.414.293 1.707C1.586 17 2.057 17 3 17h6c3.771 0 5.657 0 6.828-1.172C17 14.657 17 12.771 17 9z" stroke="#404244"/>
    <circle cx="8.5" cy="13.5" r=".5" fill="#404244"/>
    <path d="M8.5 12v-.622c0-.58.3-1.12.793-1.427l.528-.328A2.5 2.5 0 0 0 8.5 5h-.168A2.333 2.333 0 0 0 6 7.333" stroke="#404244"/>
</svg>
