<svg width="18" height="18" fill="none" xmlns="http://www.w3.org/2000/svg">
    <path fill-rule="evenodd" clip-rule="evenodd" d="m8.07 12.977 1.96-.364c.444-.083 1.359-.416 1.197-.863-.122-.336-1.091-.634-1.444-.569l-3.466.645-1.705.317.031-.075c.146-.354.313-.699.516-1.023.217-.346.455-.547.213-1.062-.152-.324-.49-.468-.729-.2L3.04 11.377A7.04 7.04 0 0 1 9 .587a7.04 7.04 0 0 1 7.044 7.038A7.041 7.041 0 0 1 9 14.664c-.24 0-.49-.162-.725-.186.1-.11.806-.49.65-.919-.117-.324-.855-.582-.855-.582z" fill="#FFCF00"/>
    <path d="M2.965 11.19a7.043 7.043 0 1 1 5.96 3.289" stroke="#404244" stroke-linecap="square"/>
    <path d="M5.795 3.279c1.284-1.023 2.783-.39 3.13.243M7.36 8.617c1.499-.079 2.898.475 3.13.775M5.013 12.364l5.305-1.005c.38-.056.777.1.909.391.174.386-.164.776-.643.848l-2.115.315M8.143 14.478c.545-.083.928-.64.73-1.093-.094-.214-.315-.25-.568-.317M8.361 16.044c.392-.09.67-.578.526-1.062-.108-.364-.433-.56-.744-.49" stroke="#404244" stroke-linecap="square" stroke-linejoin="round"/>
    <path d="m4.608 12.46.03-.073c.141-.344.303-.68.5-.995.21-.337.469-.907.234-1.408-.148-.316-.53-.225-.762.036l-1.938 2.155a3.087 3.087 0 0 0-.738 2.626l.054.291c.299 1.612 1.805 2.712 3.422 2.488a.464.464 0 0 0 .023-.003c.583-.084 2.168-.41 2.168-.41.372-.07.642-.407.507-.783A.599.599 0 0 0 7.424 16" stroke="#404244" stroke-linejoin="round"/>
    <path fill-rule="evenodd" clip-rule="evenodd" d="M7.36 6.652a.391.391 0 1 1-.782 0 .391.391 0 0 1 .782 0zM11.273 6.652a.391.391 0 1 1-.782 0 .391.391 0 0 1 .782 0z" fill="#404244" stroke="#404244" stroke-linecap="square" stroke-linejoin="round"/>
    <path d="M10.565 4.639s1.367-.576 2.348.506" stroke="#404244"/>
</svg>
