<svg width="18" height="18" fill="none" xmlns="http://www.w3.org/2000/svg">
    <g clip-path="url(#a)">
        <path d="M4.95 14.04c0 2.165 1.73 3.928 3.858 3.928s3.857-1.763 3.857-3.927V4.42a.4.4 0 0 0-.396-.403.4.4 0 0 0-.396.403v9.62c0 1.723-1.376 3.123-3.065 3.123-1.69 0-3.066-1.4-3.066-3.122V3.82c0-1.14.91-2.065 2.027-2.065s2.027.925 2.027 2.065v9.163a1 1 0 0 1-.988 1.008 1 1 0 0 1-.989-1.008V4.858a.4.4 0 0 0-.396-.403.4.4 0 0 0-.396.403v8.125c0 .999.798 1.813 1.78 1.813.983 0 1.781-.814 1.781-1.813V3.82c0-1.582-1.263-2.87-2.819-2.87C6.214.95 4.95 2.238 4.95 3.82v10.22z" fill="#404244" stroke="#404244" stroke-width=".1"/>
    </g>
    <defs>
        <clipPath id="a">
            <path fill="#fff" d="M0 0h18v18H0z"/>
        </clipPath>
    </defs>
</svg>
