<svg width="18" height="18" fill="none" xmlns="http://www.w3.org/2000/svg">
    <circle cx="9" cy="9.783" fill="#FFCF00" r="7.043"/>
    <path fill-rule="evenodd" clip-rule="evenodd" d="M12.913 11.348c0 1.728-1.752 3.13-3.913 3.13-2.161 0-3.913-1.402-3.913-3.13h7.826z" fill="#fff" stroke="#404244" stroke-linecap="square" stroke-linejoin="round"/>
    <path d="M4.304 9c.116-.453.61-.782 1.174-.782s1.058.329 1.174.782M11.348 9c.116-.453.61-.782 1.174-.782s1.058.329 1.174.782" stroke="#404244" stroke-linecap="square" stroke-linejoin="round"/>
    <circle cx="9" cy="9.783" stroke="#404244" r="7.043"/>
    <path fill-rule="evenodd" clip-rule="evenodd" d="M12.678 3.07c.397-.656 1.409-1.896 1.409-1.896s1.012 1.24 1.41 1.897c.539.892.641 1.54.472 2.153-.132.48-.681 1.428-1.882 1.428-1.2 0-1.75-.948-1.882-1.428-.169-.612-.067-1.26.473-2.153z" fill="#fff" stroke="#404244" stroke-linecap="square" stroke-linejoin="round"/>
</svg>
