<svg width="18" height="18" fill="none" xmlns="http://www.w3.org/2000/svg">
    <path d="M17.264 2.662a.932.932 0 0 0-.764-.167L1.718 6.39c-.027 0-.082.028-.11.028v-.64h-1.2v5.508h1.174v-.64h.027c.027.028.082.028.109.028l1.01.278v2.003c0 .696.545 1.28 1.254 1.28H6.79c.682 0 1.254-.557 1.254-1.28v-.612l8.482 2.253c.082.028.136.028.218.028.191 0 .382-.055.546-.194a.85.85 0 0 0 .327-.696V3.358a1.07 1.07 0 0 0-.354-.696zm-9.982 10.32a.523.523 0 0 1-.519.53H3.954a.523.523 0 0 1-.518-.53v-1.807l3.846 1.001v.807zm9.736.78c0 .083-.055.167-.11.222-.08.056-.163.084-.245.056L2.1 10.201V6.92l14.536-3.84c.082-.027.191 0 .246.056.081.056.109.14.109.223v10.404h.027z" fill="#404244"/>
</svg>
