<svg width="16" height="16" fill="none" xmlns="http://www.w3.org/2000/svg">
    <path d="M2 0v16h6.053c1.827 0 3.28-.406 4.347-1.23 1.067-.813 1.6-1.945 1.6-3.41 0-1.034-.227-1.858-.68-2.474-.453-.615-1.2-1.046-2.227-1.268v-.11A2.704 2.704 0 0 0 12.907 6.4c.453-.615.68-1.39.68-2.35 0-1.404-.52-2.438-1.56-3.078C11 .32 9.333 0 7.04 0H2zm3.427 6.338V2.782H7.24c.973 0 1.693.135 2.147.393.453.271.68.714.68 1.317 0 .665-.214 1.133-.627 1.416-.413.283-1.093.43-2.013.43h-2zm0 2.696H7.56c1.92 0 2.88.652 2.88 1.981 0 .739-.227 1.293-.68 1.65-.453.357-1.147.529-2.093.529h-2.24v-4.16z" fill="#404244"/>
</svg>
