<svg width="16" height="16" fill="none" xmlns="http://www.w3.org/2000/svg">
    <path d="M2.308 4.513V0h-.796L.023 1.162l.462.576.53-.418c.07-.056.185-.158.347-.316l-.024.474v3.035h.97zm2.307-2.256H15v1.128H4.615V2.257zm-1.419 7.842v-.79H1.212v-.045l.588-.542c.38-.35.658-.61.808-.801.161-.192.277-.372.346-.553.08-.18.115-.372.115-.575 0-.237-.057-.452-.184-.632a1.157 1.157 0 0 0-.508-.418 1.779 1.779 0 0 0-.75-.158c-.22 0-.415.023-.589.068a2.227 2.227 0 0 0-.484.17A4.235 4.235 0 0 0 0 6.216l.52.61c.184-.147.357-.26.518-.339.174-.079.347-.113.52-.113.161 0 .3.034.404.124.103.09.15.226.15.407a.888.888 0 0 1-.07.338 1.623 1.623 0 0 1-.219.372c-.104.124-.335.361-.67.7L.013 9.444v.655h3.184zm1.42-2.2H15v1.128H4.615V7.898zm-1.49 4.456a.91.91 0 0 0-.426-.8c-.277-.192-.67-.294-1.154-.294-.6 0-1.108.147-1.534.451l.461.677c.196-.124.37-.214.53-.26.162-.056.312-.078.474-.078.438 0 .67.169.67.519 0 .226-.082.395-.255.485-.173.09-.438.135-.807.135H.727v.745h.358c.392 0 .68.045.865.135.173.09.265.249.265.463 0 .248-.08.418-.23.53-.162.113-.404.17-.727.17a2.64 2.64 0 0 1-.658-.09 3.132 3.132 0 0 1-.6-.226v.835c.392.169.854.248 1.362.248.611 0 1.084-.124 1.407-.372.335-.249.496-.587.496-1.038a.933.933 0 0 0-.3-.723c-.196-.18-.484-.293-.853-.338v-.023c.311-.067.565-.214.75-.417.173-.203.265-.44.265-.734zm1.49 1.185H15v1.129H4.615V13.54z" fill="#404244"/>
</svg>
