<svg width="31" height="34" fill="none" xmlns="http://www.w3.org/2000/svg">
    <path d="M22 6.429V0l9 9h-5.143C22.771 9 22 7.286 22 6.429z" fill="#C4C4C4"/>
    <path opacity=".45" fill-rule="evenodd" clip-rule="evenodd" d="M8.391 0a3 3 0 0 0-3 3v27.696a3 3 0 0 0 3 3H28a3 3 0 0 0 3-3V9.435L21.565 0H8.391zm18.565 0c1.97 0 3.04.666 3.575 1.39A2.998 2.998 0 0 0 28 0h-1.044z" fill="#C4C4C4"/>
    <rect y="15" width="22" height="15" rx="1" fill="#60BCFF"/>
    <path d="M3.102 20.91V26h1.044v-3.326h.042l1.317 3.301h.711l1.318-3.289h.042V26H8.62v-5.09H7.293L5.89 24.33h-.06L4.43 20.91H3.102zM9.507 26h1.076v-1.65h.905c1.17 0 1.852-.7 1.852-1.716 0-1.012-.669-1.725-1.825-1.725H9.507V26zm1.076-2.513v-1.698h.726c.622 0 .922.338.922.845 0 .505-.3.853-.917.853h-.73zm3.35 1.618h2.443V26h1.029v-.895h.631v-.863h-.631V20.91h-1.347l-2.126 3.349v.847zm2.463-.863h-1.38v-.04l1.34-2.12h.04v2.16z" fill="#fff"/>
</svg>
