<svg width="23" height="23" fill="none" xmlns="http://www.w3.org/2000/svg">
    <path fill-rule="evenodd" clip-rule="evenodd" d="M7.33 10.187S10.35 7.83 11 6.677c.65-1.152 1.896-3.386 2.18-4.531C13.465 1 16.32.738 16 3.5c-.32 2.762-1.172 2.649-1.172 3.475 0 .825-.176 2.845.588 3.212.765.367 5.48.5 5.712 1.313.232.814-1.044 2.423-1.506 2.423-.462 0 1.378 1.281.88 1.693-.5.412-1.477.874-1.477.874s.898 1.097.597 1.563c-.3.467-1.547.947-1.547.947s.703 1.575.186 1.903c-.518.329-3.724.319-4.683 0-.959-.318-5.532-2.393-6.249-2.393H5c-.182 0 .032.774-1.186.49C2.596 18.716 1.8 18.286 2 16.951c.201-1.335.902-6.508.902-6.508S4.378 9.558 5 10c.622.443 2.33.187 2.33.187z" fill="#fff" fill-opacity=".01"/>
    <path d="M14.459 12c1.19-1.227.636-2.773.44-3.332-.253-.723-.268-1.334-.071-1.693.21-.385.625-1.169.809-1.556 1.034-2.174-.338-4.537-1.656-4.414-.641.06-.997.812-1.095 1.527-.172 1.255-.69 2.662-1.549 3.604-1.096 1.203-1.824 2.219-2.676 3.28-.529.66-1.77.94-2.661 1.057" stroke="#404244" stroke-linecap="square" stroke-linejoin="round"/>
    <path clip-rule="evenodd" d="m2.93 18.88 1.298.116c.562.05 1.061-.352 1.113-.897l.655-6.9c.051-.546-.363-1.029-.926-1.079l-1.298-.116c-.563-.05-1.061.352-1.113.897l-.655 6.9c-.051.546.363 1.029.926 1.079z" stroke="#404244" stroke-linecap="square" stroke-linejoin="round"/>
    <path d="M15.193 10c.745.606 2.412.745 2.412.745s3.6.255 3.745 1.46c.145 1.205-1.728 1.718-1.728 1.718s1.653 1.994-.949 2.497c0 0 2.493 1.834-.853 2.58 0 0 2.493 2.635-2.08 2.178C11.164 20.723 11 19.258 5 18" stroke="#404244" stroke-linejoin="bevel"/>
</svg>
