<svg width="18" height="18" fill="none" xmlns="http://www.w3.org/2000/svg">
    <path fill-rule="evenodd" clip-rule="evenodd" d="M5.736 7.972s2.365-1.845 2.873-2.747c.508-.902 1.483-2.65 1.706-3.546.223-.897 2.457-1.102 2.207 1.06s-.918 2.073-.918 2.72c0 .645-.137 2.226.46 2.513.6.287 4.289.391 4.47 1.028.183.637-.816 1.896-1.177 1.896-.362 0 1.078 1.002.688 1.325-.39.322-1.156.684-1.156.684s.703.858.468 1.223c-.235.366-1.211.741-1.211.741s.55 1.233.145 1.49c-.405.257-2.915.249-3.665 0-.75-.25-4.33-1.873-4.89-1.873H3.913c-.142 0 .025.606-.928.383-.953-.222-1.577-.559-1.42-1.603.158-1.045.706-5.094.706-5.094s1.155-.692 1.642-.346c.487.346 1.823.146 1.823.146z" fill="#00ACF1"/>
    <path d="M11.315 9.39c.932-.96.499-2.17.345-2.607-.198-.565-.21-1.044-.056-1.325.165-.3.49-.914.634-1.217.809-1.702-.265-3.551-1.296-3.455-.502.047-.78.635-.857 1.195-.135.983-.54 2.084-1.212 2.821-.858.941-1.428 1.736-2.095 2.567-.414.517-1.385.735-2.082.827" stroke="#404244" stroke-linecap="square" stroke-linejoin="round"/>
    <path clip-rule="evenodd" d="m2.293 14.775 1.016.091c.44.04.83-.275.87-.702l.513-5.4a.784.784 0 0 0-.724-.844l-1.016-.09a.794.794 0 0 0-.87.701l-.513 5.4a.783.783 0 0 0 .724.845z" stroke="#404244" stroke-linecap="square" stroke-linejoin="round"/>
    <path d="M11.89 7.826c.583.475 1.888.583 1.888.583s2.817.2 2.93 1.143c.114.943-1.351 1.344-1.351 1.344s1.293 1.56-.743 1.955c0 0 1.95 1.435-.668 2.019 0 0 1.951 2.062-1.628 1.705-3.58-.358-3.71-1.504-8.405-2.488" stroke="#404244" stroke-linejoin="bevel"/>
</svg>
