<svg width="21" height="20" fill="none" xmlns="http://www.w3.org/2000/svg">
    <g clip-path="url(#a)">
        <path d="M12.756 7.191V4.372c0-1.041-.858-1.878-1.948-1.878H3.452c-1.09 0-1.955.837-1.955 1.878v4.005c0 .995.792 1.805 1.812 1.87l-.006.1a.21.21 0 0 1 .192.201l9.261-3.357zm0 0h-2.571c-.345 0-.684.064-.987.187h-.002a3.09 3.09 0 0 0-.432.229l-.002.001A2.44 2.44 0 0 0 7.64 9.656v.598H5.365a.33.33 0 0 0-.212.079l-.006.005-1.552 1.49 9.161-4.637zM7.095 3.698H7.236c.386.022.769.153 1.064.396.304.245.512.61.512 1.045.015.704-.448 1.335-1.114 1.713-.153.086-.255.248-.275.679v.002a.307.307 0 0 1-.32.28m-.007-4.115.014 4.015m-.014-4.015h-.002c-.34.007-.693.094-.99.294a1.58 1.58 0 0 0-.68 1.064.276.276 0 0 0 .043.223c.042.062.11.113.195.126a.298.298 0 0 0 .226-.054.297.297 0 0 0 .123-.195.967.967 0 0 1 .43-.672l.002-.001c.213-.145.488-.21.76-.19h.002c.271.012.533.11.714.253a.78.78 0 0 1 .296.603c.006.436-.29.891-.82 1.19h-.002c-.375.219-.545.633-.574 1.167m.277-3.808-.177 3.814m.185.3.006-.1m-.006.1.006-.1m-.006.1a.313.313 0 0 1-.204-.097.28.28 0 0 1-.08-.21m.29.208c-.106-.007-.198-.104-.191-.2m-.1-.007.1.006m-.1-.006v-.001l.1.007m6.924 6.404c0 .007.014.014.021.014.006 0 .026-.006.028-.013h-.049zm0 0c0-.014.014-.028.021-.028.007 0 .028.014.028.028h-.049zm3.841 1.616a.312.312 0 0 0-.284.293v1.293l-1.553-1.496a.296.296 0 0 0-.204-.084h-5.457c-1.09 0-1.948-.837-1.948-1.878V9.656c0-.063.006-.127.013-.189v-.001c.1-.95.914-1.688 1.935-1.688h7.363c1.09 0 1.955.837 1.955 1.878v4.004c0 .995-.798 1.806-1.82 1.872zM13.865 8.96a.106.106 0 0 0-.075.007.302.302 0 0 0-.225.288v3.617a.3.3 0 0 0 .298.294.3.3 0 0 0 .299-.294V9.255a.302.302 0 0 0-.297-.295zM3.452 1.9C2.046 1.9.9 3.007.9 4.372v4.004c0 1.216.912 2.19 2.09 2.402v1.748c0 .133.097.226.193.266.097.04.23.043.324-.05l1.97-1.894H7.64v2.812c0 1.372 1.139 2.473 2.545 2.473h5.324l1.976 1.886c.093.095.226.096.324.056.097-.04.194-.133.194-.265v-1.748c1.178-.212 2.097-1.186 2.097-2.402V9.656c0-1.366-1.147-2.465-2.552-2.465h-4.194V4.372c0-1.365-1.14-2.472-2.545-2.472H3.452zm3.671 6.176a.474.474 0 0 0-.475.467c0 .26.22.46.475.46.26 0 .49-.196.49-.46 0-.262-.228-.467-.49-.467zm6.74 5.367a.486.486 0 0 0-.483.473c0 .263.23.46.483.46.25 0 .49-.195.49-.46 0-.26-.234-.473-.49-.473zm-6.74-4.921c.015 0 .029.007.029.02 0 .007-.015.015-.029.015-.007 0-.014-.007-.014-.014 0-.014.007-.021.014-.021z" fill="#404244" stroke="#404244" stroke-width=".2"/>
    </g>
    <defs>
        <clipPath id="a">
            <path fill="#fff" transform="translate(.5)" d="M0 0h20v20H0z"/>
        </clipPath>
    </defs>
</svg>
