<svg width="19" height="19" fill="none" xmlns="http://www.w3.org/2000/svg">
    <path d="M17.5 9.5c0-3.771 0-5.657-1.172-6.828C15.157 1.5 13.271 1.5 9.5 1.5c-3.771 0-5.657 0-6.828 1.172C1.5 3.843 1.5 5.729 1.5 9.5v6c0 .943 0 1.414.293 1.707.293.293.764.293 1.707.293h6c3.771 0 5.657 0 6.828-1.172C17.5 15.157 17.5 13.271 17.5 9.5z" stroke="#fff"/>
    <circle cx="9" cy="14" r=".5" fill="#fff"/>
    <path d="M9 12.5v-.622c0-.58.3-1.12.793-1.427l.528-.328A2.5 2.5 0 0 0 9 5.5h-.168A2.333 2.333 0 0 0 6.5 7.833" stroke="#fff"/>
</svg>
