<svg width="11" height="17" viewBox="0 0 11 17" fill="none" xmlns="http://www.w3.org/2000/svg">
<path d="M0.999759 8.68477C0.999759 8.5513 1.051 8.43323 1.15349 8.33056L8.31725 1.154C8.41974 1.05133 8.5376 1 8.67083 1C8.80406 1 8.92192 1.05133 9.0244 1.154L9.79305 1.92402C9.89553 2.02669 9.94678 2.14476 9.94678 2.27823C9.94678 2.4117 9.89553 2.52977 9.79305 2.63244L3.7515 8.68477L9.79305 14.7371C9.89553 14.8398 9.94678 14.9578 9.94678 15.0913C9.94678 15.2248 9.89553 15.3428 9.79305 15.4455L9.0244 16.2155C8.92192 16.3182 8.80406 16.3695 8.67083 16.3695C8.5376 16.3695 8.41974 16.3182 8.31725 16.2155L1.15349 9.03898C1.051 8.93631 0.999759 8.81824 0.999759 8.68477Z" fill="#1F4C6B" stroke="#1F4C6B" stroke-width="0.5"/>
</svg>
