<svg width="16" height="16" fill="none" xmlns="http://www.w3.org/2000/svg">
    <path d="M1.846 3.692A1.844 1.844 0 0 1 0 1.846C0 .836.825 0 1.846 0a1.86 1.86 0 0 1 1.846 1.846 1.852 1.852 0 0 1-1.846 1.846zm3.077-2.461H16v1.23H4.923v-1.23zM1.846 9.846A1.844 1.844 0 0 1 0 8c0-1.01.825-1.846 1.846-1.846A1.86 1.86 0 0 1 3.692 8a1.852 1.852 0 0 1-1.846 1.846zm3.077-2.461H16v1.23H4.923v-1.23zM1.846 16A1.844 1.844 0 0 1 0 14.154c0-1.01.825-1.846 1.846-1.846a1.86 1.86 0 0 1 1.846 1.846A1.852 1.852 0 0 1 1.846 16zm3.077-2.461H16v1.23H4.923v-1.23z" fill="#404244"/>
</svg>
