<svg width="20" height="20" fill="none" xmlns="http://www.w3.org/2000/svg">
    <path d="M19.182 2.959c-.243-.186-.546-.248-.849-.186L1.91 7.1c-.03 0-.091.031-.121.031v-.71H.454v6.12h1.303v-.712h.03c.031.031.092.031.122.031l1.121.31v2.225c0 .773.606 1.422 1.394 1.422h3.121c.758 0 1.394-.618 1.394-1.422v-.68l9.424 2.504c.091.03.152.03.243.03a.915.915 0 0 0 .606-.216.945.945 0 0 0 .364-.773V3.732a1.19 1.19 0 0 0-.394-.772zM8.09 14.426c0 .309-.243.587-.576.587H4.394a.581.581 0 0 1-.576-.587v-2.01l4.273 1.114v.896zm10.818.865c0 .093-.06.186-.121.248-.091.062-.182.092-.273.062L2.333 11.335V7.688l16.152-4.266c.09-.03.212 0 .272.062.091.062.122.155.122.247v11.56h.03z" fill="#386CBB"/>
</svg>
