<svg width="31" height="34" fill="none" xmlns="http://www.w3.org/2000/svg">
    <path d="M22 6.429V0l9 9h-5.143C22.771 9 22 7.286 22 6.429z" fill="#C4C4C4"/>
    <path opacity=".45" fill-rule="evenodd" clip-rule="evenodd" d="M8.391 0a3 3 0 0 0-3 3v27.696a3 3 0 0 0 3 3H28a3 3 0 0 0 3-3V9.435L21.565 0H8.391zm18.565 0c1.97 0 3.04.666 3.575 1.39A2.998 2.998 0 0 0 28 0h-1.044z" fill="#C4C4C4"/>
    <rect y="15" width="22" height="15" rx="1" fill="#F58585"/>
    <path d="M4.583 25h1.076v-1.65h.905c1.17 0 1.852-.7 1.852-1.716 0-1.012-.669-1.725-1.825-1.725H4.583V25zm1.076-2.513v-1.698h.726c.621 0 .922.338.922.845 0 .505-.3.853-.917.853h-.731zM10.919 25c1.552 0 2.491-.96 2.491-2.55 0-1.586-.94-2.54-2.476-2.54h-1.82V25h1.805zm-.728-.922V20.83h.686c.955 0 1.46.488 1.46 1.619 0 1.136-.505 1.628-1.462 1.628h-.684zm4.017.922h1.076v-2.103h2.07v-.887h-2.07v-1.213h2.294v-.888h-3.37V25z" fill="#fff"/>
</svg>
