<svg width="20" height="20" fill="none" xmlns="http://www.w3.org/2000/svg">
    <path d="M13.97 2.926H4.482a.434.434 0 0 0-.317.14.497.497 0 0 0-.131.34c0 .127.047.249.131.339.084.09.198.14.317.14h9.488c.119 0 .233-.05.317-.14a.498.498 0 0 0 .13-.34.498.498 0 0 0-.13-.339.434.434 0 0 0-.317-.14zM13.97 5.929H4.482a.434.434 0 0 0-.317.14.497.497 0 0 0-.131.34c0 .127.047.249.131.339.084.09.198.14.317.14h9.488c.119 0 .233-.05.317-.14a.498.498 0 0 0 .13-.34.498.498 0 0 0-.13-.339.434.434 0 0 0-.317-.14zM14.418 9.411a.498.498 0 0 0-.131-.339.434.434 0 0 0-.317-.14H4.482a.434.434 0 0 0-.317.14.497.497 0 0 0-.131.34c0 .127.047.249.131.339.084.09.198.14.317.14h9.488c.119 0 .233-.05.317-.14a.498.498 0 0 0 .13-.34zM4.482 11.935a.433.433 0 0 0-.317.14.497.497 0 0 0-.131.34c0 .127.047.249.131.339.084.09.198.14.317.14h6.097c.119 0 .233-.05.317-.14a.497.497 0 0 0 .131-.34.497.497 0 0 0-.131-.339.433.433 0 0 0-.317-.14H4.482zM13.28 18.988a.43.43 0 0 0-.25.082.477.477 0 0 0-.167.217.514.514 0 0 0 .098.527.425.425 0 0 0 .492.105.46.46 0 0 0 .203-.178.509.509 0 0 0-.057-.611.437.437 0 0 0-.319-.142zM13.28 16.572a.433.433 0 0 0-.316.14.497.497 0 0 0-.132.34c0 .127.047.25.131.34.085.09.199.14.317.14.48 0 .942.204 1.282.568.34.363.531.856.532 1.37 0 .128.047.25.131.34.084.09.198.14.317.14s.233-.05.317-.14a.497.497 0 0 0 .131-.34 3.01 3.01 0 0 0-.795-2.048 2.625 2.625 0 0 0-1.915-.85z" fill="#404244"/>
    <path d="M13.28 14.417a.433.433 0 0 0-.316.14.498.498 0 0 0-.132.34c0 .127.047.249.131.339.085.09.199.14.317.14a3.706 3.706 0 0 1 2.702 1.201 4.25 4.25 0 0 1 1.122 2.893c0 .127.047.249.131.339.084.09.198.14.317.14s.233-.05.317-.14a.498.498 0 0 0 .131-.34c-.002-1.339-.5-2.623-1.384-3.57-.885-.947-2.085-1.48-3.336-1.482z" fill="#404244"/>
    <path d="M12.157 19.04H2.77a.847.847 0 0 1-.618-.274.971.971 0 0 1-.256-.661V1.895c0-.248.093-.486.256-.661A.847.847 0 0 1 2.77.959h12.91c.232 0 .454.1.618.275a.971.971 0 0 1 .256.661v12.9c.33.262.63.564.896.899V1.895c0-.502-.187-.984-.519-1.34A1.715 1.715 0 0 0 15.681 0H2.77c-.47 0-.92.2-1.252.556A1.967 1.967 0 0 0 1 1.896v16.209c0 .502.187.984.519 1.34.332.355.782.555 1.251.555h9.421a1.301 1.301 0 0 1-.034-.96z" fill="#404244"/>
</svg>
