<svg width="16" height="16" viewBox="0 0 16 16" fill="none" xmlns="http://www.w3.org/2000/svg">
<path d="M6.27839 2.81742C7.00795 0.93914 7.37272 0 8 0C8.62728 0 8.99205 0.93914 9.72161 2.81742L9.75558 2.90488C10.1677 3.96602 10.3738 4.49659 10.7938 4.81907C11.2138 5.14156 11.7652 5.19255 12.8679 5.29454L13.0672 5.31298C14.8719 5.47989 15.7743 5.56334 15.9673 6.15622C16.1604 6.74909 15.4903 7.37871 14.1501 8.63794L13.7028 9.0582C13.0243 9.69565 12.6851 10.0144 12.527 10.4321C12.4975 10.51 12.4729 10.5899 12.4536 10.6711C12.3496 11.1066 12.449 11.5689 12.6476 12.4937L12.7095 12.7815C13.0746 14.481 13.2572 15.3308 12.9384 15.6973C12.8193 15.8343 12.6645 15.9329 12.4925 15.9813C12.0323 16.111 11.3789 15.5612 10.0722 14.4615C9.21409 13.7394 8.78506 13.3784 8.29247 13.2972C8.09872 13.2652 7.90128 13.2652 7.70753 13.2972C7.21494 13.3784 6.78591 13.7394 5.92783 14.4615C4.62107 15.5612 3.96768 16.111 3.50747 15.9813C3.3355 15.9329 3.1807 15.8343 3.06159 15.6973C2.74283 15.3308 2.92539 14.481 3.29052 12.7815L3.35236 12.4937C3.55103 11.5689 3.65037 11.1066 3.54644 10.6711C3.52705 10.5899 3.50253 10.51 3.47304 10.4321C3.31493 10.0144 2.9757 9.69565 2.29725 9.0582L1.84995 8.63794C0.509706 7.37871 -0.160414 6.74909 0.0326663 6.15622C0.225746 5.56334 1.12809 5.47989 2.93278 5.31298L3.13213 5.29454C4.23482 5.19255 4.78616 5.14156 5.20617 4.81907C5.62618 4.49659 5.83226 3.96602 6.24442 2.90488L6.27839 2.81742Z" fill="#386CBB"/>
</svg>
