<?xml version="1.0" encoding="UTF-8"?>
<svg width="512" height="512" enable-background="new 0 0 480.063 480.063" version="1.1" viewBox="0 0 480.06 480.06" xmlns="http://www.w3.org/2000/svg" xmlns:cc="http://creativecommons.org/ns#" xmlns:dc="http://purl.org/dc/elements/1.1/" xmlns:rdf="http://www.w3.org/1999/02/22-rdf-syntax-ns#">
 <metadata>
  <rdf:RDF>
   <cc:Work rdf:about="">
    <dc:format>image/svg+xml</dc:format>
    <dc:type rdf:resource="http://purl.org/dc/dcmitype/StillImage"/>
    <dc:title/>
   </cc:Work>
  </rdf:RDF>
 </metadata>
 <path d="m384.18 404.45v42.051c0 3.9313-3.1874 7.1186-7.1186 7.1186s-7.1186-3.1874-7.1186-7.1186v-42.051c0-32.741-26.495-59.238-59.239-59.237-15.493 0-29.549-7.8928-37.603-21.114-2.0448-3.3573-0.98148-7.738 2.3767-9.7828 3.3573-2.0457 7.7371-0.98148 9.7828 2.3767 5.4475 8.9437 14.959 14.283 25.444 14.283 40.609-2e-3 73.476 32.861 73.476 73.474zm-124.23-71.358c0.83733 3.8414-1.5981 7.6338-5.4395 8.4712-18.734 4.0816-37.788-4e-3 -52.959-10.359-15.019 16.094-34.86 14.009-32.204 14.009-32.741-8.9e-4 -59.239 26.493-59.239 59.237v42.051c0 3.9313-3.1874 7.1186-7.1186 7.1186s-7.1186-3.1874-7.1186-7.1186v-42.051c0-40.608 32.861-73.474 73.474-73.474 16.428 0 29.746-13.236 29.746-29.669v-1.8749c-31.072-14.858-52.882-46.079-54.211-82.437-12.787-3.0744-22.314-14.519-22.314-28.136v-36.904c-0.38885-18.064 2.2931-63.305 35.28-95.102 40.732-39.265 106.05-36.77 154.08-13.648 4.6814 2.2557 5.3924 8.5806 1.5047 11.856 24.332 5.9352 45.315 20.893 58.795 42.301 0.69584 1.1025 1.9701 2.8332 1.6373 5.5944-0.20645 1.7183-0.7181 3.1722-2.0422 4.5159-8.6758 8.7986-13.453 20.458-13.453 32.831v48.558c0 3.9313-3.1874 7.1186-7.1186 7.1186-3.9313 0-7.1186-3.1874-7.1186-7.1186v-48.558c0-14.27 4.8754-27.815 13.83-38.696-13.648-19.519-34.942-32.073-59.024-34.652l-12.512-1.3401c-7.3162-0.78305-8.7515-10.862-1.9523-13.661l5.6905-2.3429c-74.11-25.836-153.36 2.8706-153.36 102.27v36.981c0 5.6486 3.2532 10.558 8.0085 13.024v-46.149c0-27.476 22.354-49.831 49.831-49.831h90.763c27.476 0 49.83 22.353 49.83 49.828v58.287c0 61.909-60.498 108.93-122.06 90.81-0.40042 5.0792-1.6649 9.9803-3.7248 14.536 11.975 8.2238 27.098 11.541 42.027 8.2879 3.8414-0.83644 7.6339 1.599 8.4712 5.4404zm-19.927-38.641c44.65 0 80.975-36.325 80.975-80.975v-57.746c0-19.624-15.967-35.591-35.593-35.591h-90.763c-19.626 0-35.593 15.967-35.593 35.593v57.743c0 44.65 36.325 80.975 80.975 80.975zm72.076 122.69h-21.356c-3.9313 0-7.1186 3.1874-7.1186 7.1186 0 3.9313 3.1874 7.1186 7.1186 7.1186h21.356c3.9313 0 7.1186-3.1874 7.1186-7.1186 0-3.9313-3.1874-7.1186-7.1186-7.1186z" stroke-width=".88983"/>
</svg>
