<svg width="31" height="34" fill="none" xmlns="http://www.w3.org/2000/svg">
    <path d="M22 6.429V0l9 9h-5.143C22.771 9 22 7.286 22 6.429z" fill="#C4C4C4"/>
    <path opacity=".45" fill-rule="evenodd" clip-rule="evenodd" d="M8.391 0a3 3 0 0 0-3 3v27.696a3 3 0 0 0 3 3H28a3 3 0 0 0 3-3V9.435L21.565 0H8.391zm18.565 0c1.97 0 3.04.666 3.575 1.39A2.998 2.998 0 0 0 28 0h-1.044z" fill="#C4C4C4"/>
    <rect y="15" width="22" height="15" rx="1" fill="#78A0C6"/>
    <path d="M3.94 25h1.076v-1.65h.905c1.171 0 1.852-.7 1.852-1.716 0-1.012-.669-1.725-1.824-1.725H3.94V25zm1.076-2.513v-1.698h.726c.622 0 .922.338.922.845 0 .505-.3.853-.917.853h-.73zm7.714-2.578H11.66v3.202h-.045l-2.197-3.202h-.945V25H9.55v-3.204h.037L11.8 25h.93v-5.09zm4.265 1.646h1.094c-.139-1.007-1.026-1.715-2.177-1.715-1.345 0-2.382.969-2.382 2.62 0 1.61.97 2.61 2.404 2.61 1.285 0 2.202-.813 2.202-2.153v-.641h-2.13v.81H17.1c-.015.631-.445 1.032-1.161 1.032-.808 0-1.318-.604-1.318-1.668 0-1.06.53-1.659 1.308-1.659.554 0 .93.286 1.066.764z" fill="#fff"/>
</svg>
