<svg width="31" height="34" fill="none" xmlns="http://www.w3.org/2000/svg">
    <path d="M22 6.429V0l9 9h-5.143C22.771 9 22 7.286 22 6.429z" fill="#C4C4C4"/>
    <path opacity=".45" fill-rule="evenodd" clip-rule="evenodd" d="M8.391 0a3 3 0 0 0-3 3v27.696a3 3 0 0 0 3 3H28a3 3 0 0 0 3-3V9.435L21.565 0H8.391zm18.565 0c1.97 0 3.04.666 3.575 1.39A2.998 2.998 0 0 0 28 0h-1.044z" fill="#C4C4C4"/>
    <rect y="15" width="22" height="15" rx="1" fill="#386CBB"/>
    <path d="M6.404 25.062c.616 0 .937-.355 1.084-.674h.044V25h1.044v-5.09H7.52v1.913h-.032c-.142-.31-.448-.69-1.087-.69-.837 0-1.546.65-1.546 1.963 0 1.278.679 1.966 1.549 1.966zm.335-.843c-.52 0-.803-.462-.803-1.128 0-.661.279-1.116.803-1.116.515 0 .803.435.803 1.116s-.293 1.128-.803 1.128zm4.433.856c1.159 0 1.88-.793 1.88-1.97 0-1.182-.721-1.973-1.88-1.973-1.158 0-1.88.79-1.88 1.974 0 1.176.722 1.969 1.88 1.969zm.005-.82c-.534 0-.808-.49-.808-1.157 0-.666.274-1.158.808-1.158.525 0 .798.492.798 1.158 0 .667-.273 1.156-.798 1.156zm4.288.82c1.017 0 1.656-.597 1.705-1.474h-.999c-.062.407-.33.636-.694.636-.494 0-.815-.415-.815-1.146 0-.721.323-1.134.815-1.134.388 0 .637.256.694.637h1c-.045-.883-.714-1.462-1.71-1.462-1.16 0-1.875.803-1.875 1.974 0 1.16.703 1.969 1.88 1.969z" fill="#fff"/>
</svg>
