<svg width="23" height="23" fill="none" xmlns="http://www.w3.org/2000/svg">
    <path clip-rule="evenodd" d="M20.96 2.04a.14.14 0 0 0-.153-.03L2.085 9.926a.138.138 0 0 0-.005.254l5.809 2.746a.14.14 0 0 0 .113.002l3.588-1.515-1.517 3.585a.136.136 0 0 0 .002.114l2.746 5.81a.138.138 0 0 0 .125.079.138.138 0 0 0 .128-.084l7.915-18.723a.14.14 0 0 0-.03-.152z" stroke="#404244" stroke-linecap="square" stroke-linejoin="round"/>
    <path d="m6 17-4 4M8 19l-2 2M4 16l-2 2" stroke="#404244" stroke-linecap="square" stroke-linejoin="round"/>
</svg>
