<svg width="20" height="20" fill="none" xmlns="http://www.w3.org/2000/svg">
    <path d="M8.334 12.5V10M11.666 12.5V10M2.5 5.833h15v0c-.465 0-.697 0-.89.039a2 2 0 0 0-1.572 1.571C15 7.637 15 7.87 15 8.333v4.334c0 1.885 0 2.828-.586 3.414-.586.586-1.528.586-3.414.586H9c-1.886 0-2.828 0-3.414-.586C5 15.495 5 14.552 5 12.667V8.333c0-.464 0-.696-.038-.89A2 2 0 0 0 3.39 5.872c-.193-.038-.425-.038-.89-.038v0zM8.39 2.809c.094-.089.304-.167.595-.223A5.567 5.567 0 0 1 9.999 2.5c.367 0 .724.03 1.015.086.291.056.5.134.595.223" stroke="#404244" stroke-linecap="round"/>
</svg>
