<svg width="16" height="16" fill="none" xmlns="http://www.w3.org/2000/svg">
    <path clip-rule="evenodd" d="m15.185 8.65.05-.563a.81.81 0 0 0-.727-.883l-1.142-.102a5.545 5.545 0 0 0-1.17-2.563l.658-.95a.821.821 0 0 0-.195-1.132l-1.037-.74a.792.792 0 0 0-1.116.199l-.66.952a5.404 5.404 0 0 0-2.77-.25l-.483-1.056a.795.795 0 0 0-1.063-.395l-1.15.541a.817.817 0 0 0-.389 1.08l.482 1.053a5.51 5.51 0 0 0-1.598 2.312L1.732 6.05a.805.805 0 0 0-.868.737l-.05.564-.05.563a.809.809 0 0 0 .727.881l1.143.104c.16.914.545 1.798 1.17 2.563l-.658.95a.82.82 0 0 0 .195 1.132l1.037.74a.793.793 0 0 0 1.115-.199l.66-.953a5.41 5.41 0 0 0 2.77.25l.484 1.058a.796.796 0 0 0 1.063.394l1.15-.541a.818.818 0 0 0 .388-1.08l-.482-1.053a5.513 5.513 0 0 0 1.598-2.312l1.143.103c.44.04.83-.29.869-.737l.05-.564z" stroke="#1E1E1E" stroke-width=".75" stroke-linejoin="round"/>
    <path clip-rule="evenodd" d="M10.657 8.226c-.131 1.4-1.426 2.434-2.893 2.31-1.467-.125-2.55-1.362-2.42-2.762.131-1.4 1.426-2.434 2.893-2.31 1.467.125 2.55 1.362 2.42 2.762z" stroke="#1E1E1E" stroke-width=".75" stroke-linejoin="round"/>
</svg>
