<svg width="16" height="16" fill="none" xmlns="http://www.w3.org/2000/svg">
    <path d="M1.334 9.5c0-1.886 0-2.828.586-3.414C2.506 5.5 3.448 5.5 5.334 5.5h5.333c1.886 0 2.829 0 3.415.586.585.586.585 1.528.585 3.414 0 2.828 0 4.243-.878 5.121-.879.879-2.293.879-5.122.879H7.334c-2.828 0-4.243 0-5.121-.879-.879-.878-.879-2.293-.879-5.121z" stroke="#404244"/>
    <path d="M11.335 4.667v-.834A3.333 3.333 0 0 0 8 .5v0a3.333 3.333 0 0 0-3.333 3.333v.834" stroke="#404244" stroke-linecap="round"/>
</svg>
