<svg width="21" height="20" fill="none" xmlns="http://www.w3.org/2000/svg">
    <rect x="5.714" y="9.048" width="3.81" height="3.81" rx="1.905" transform="rotate(90 5.714 9.048)" stroke="#404244"/>
    <rect x="16.19" y="8.095" width="3.81" height="3.81" rx="1.905" transform="rotate(-90 16.19 8.095)" stroke="#404244"/>
    <path d="M17.143 7.143 15.714 8.57c-.904.904-1.356 1.356-1.889 1.492a2 2 0 0 1-.984 0c-.533-.136-.985-.588-1.889-1.492-.903-.903-1.355-1.355-1.889-1.49a2 2 0 0 0-.984 0c-.533.135-.985.587-1.889 1.49L4.762 10" stroke="#404244"/>
</svg>
