<svg width="18" height="18" fill="none" xmlns="http://www.w3.org/2000/svg">
    <g clip-path="url(#a)">
        <path d="M2.752 3.042v.1h2.18a.726.726 0 0 0 .72-.72v-2.2h-.52V2.421a.203.203 0 0 1-.058.14.199.199 0 0 1-.139.06H2.752V3.04z" fill="#404244" stroke="#404244" stroke-width=".2"/>
        <path d="M2.538 3.254 15.94 16.746h.1V6.105a.261.261 0 0 0-.26-.26.26.26 0 0 0-.259.26V16.76c0 .175-.07.344-.192.468a.654.654 0 0 1-.464.193H3.714a.654.654 0 0 1-.464-.193.665.665 0 0 1-.193-.468v-13.5a.69.69 0 0 1 .195-.47L5.259.774A.643.643 0 0 1 5.718.58h9.147c.174 0 .34.07.464.194a.665.665 0 0 1 .192.468v1.65a.261.261 0 0 0 .26.26c.069 0 .135-.028.183-.077l-.07-.07.07.07a.261.261 0 0 0 .076-.184V1.234c0-.314-.123-.615-.344-.837a1.172 1.172 0 0 0-.831-.347h-9.14a1.156 1.156 0 0 0-.831.352L2.886 2.417c-.22.223-.344.523-.348.837zm.42-.767L4.964.472a1.062 1.062 0 0 1 .76-.322L2.956 2.487z" fill="#404244" stroke="#404244" stroke-width=".2"/>
        <path d="M7.75 8.459h.765C8.388 7.599 7.685 7 6.768 7c-1.083 0-1.896.843-1.896 2.254 0 1.386.776 2.246 1.919 2.246 1.024 0 1.758-.697 1.758-1.827v-.526H6.87v.62h.955c-.013.625-.407 1.02-1.03 1.02-.693 0-1.168-.549-1.168-1.541 0-.986.483-1.534 1.152-1.534.5 0 .84.283.973.747zM10.025 7.06h-.75v4.38h.75V7.06zM10.837 11.44h.75V9.58h1.72v-.666h-1.72V7.725h1.902V7.06h-2.652v4.38z" fill="#404244"/>
        <path d="M15.78 2.732V6.59" stroke="#404244" stroke-width=".72"/>
    </g>
    <defs>
        <clipPath id="a">
            <path fill="#fff" d="M0 0h18v18H0z"/>
        </clipPath>
    </defs>
</svg>
