<svg width="16" height="16" fill="none" xmlns="http://www.w3.org/2000/svg">
    <path fill-rule="evenodd" clip-rule="evenodd" d="M12.493 1.983c-.424.075-1.003.267-1.847.548L4.76 4.493c-.637.213-1.1.367-1.44.495-.352.133-.511.217-.58.272a1.5 1.5 0 0 0 0 2.359c.069.054.228.138.58.271.34.128.803.283 1.44.495l.03.01c.226.075.383.127.527.197a2.5 2.5 0 0 1 1.166 1.166c.07.144.121.3.197.527l.01.03c.212.636.367 1.1.495 1.439.133.352.216.512.271.581a1.5 1.5 0 0 0 2.36 0c.054-.07.138-.229.27-.581.129-.34.283-.803.495-1.44l1.962-5.885c.282-.844.473-1.423.549-1.847.076-.427 0-.525-.037-.562-.038-.038-.135-.113-.562-.037zm-.175-.985c.51-.09 1.045-.085 1.444.315.4.399.405.934.314 1.444-.09.505-.306 1.154-.57 1.947l-.014.04-1.962 5.887-.004.011a44.644 44.644 0 0 1-.504 1.465c-.131.349-.26.642-.42.846a2.5 2.5 0 0 1-3.932 0c-.16-.204-.29-.497-.421-.846-.136-.36-.296-.842-.504-1.465l-.004-.011a4.02 4.02 0 0 0-.16-.439 1.5 1.5 0 0 0-.698-.7 4.014 4.014 0 0 0-.44-.158l-.01-.004a44.414 44.414 0 0 1-1.465-.504c-.349-.132-.643-.26-.846-.421a2.5 2.5 0 0 1 0-3.932c.203-.16.497-.289.846-.42.36-.136.841-.297 1.464-.505l.012-.003 5.886-1.962.04-.014c.794-.264 1.443-.48 1.948-.57z" fill="#404244"/>
</svg>
