<svg width="15" height="15" fill="none" xmlns="http://www.w3.org/2000/svg">
    <path fill-rule="evenodd" clip-rule="evenodd" d="M4.732 6.577s1.951-1.522 2.37-2.266c.42-.744 1.224-2.186 1.408-2.926.184-.74 2.027-.909 1.82.875-.206 1.783-.756 1.71-.756 2.243 0 .533-.114 1.838.38 2.074.493.237 3.537.323 3.687.848.15.525-.674 1.564-.972 1.564-.298 0 .89.827.568 1.093-.322.266-.953.565-.953.565s.58.708.385 1.01c-.194.3-.999.61-.999.61s.454 1.017.12 1.23c-.334.211-2.404.205-3.023 0-.62-.206-3.572-1.546-4.035-1.546H3.228c-.117 0 .02.5-.765.316-.787-.183-1.302-.46-1.172-1.323.13-.862.583-4.202.583-4.202s.953-.571 1.354-.285c.402.285 1.504.12 1.504.12z" fill="#fff" fill-opacity=".01"/>
    <path d="M9.335 7.748c.77-.792.411-1.79.285-2.152-.164-.466-.173-.861-.046-1.093.136-.248.403-.754.522-1.004.668-1.404-.218-2.93-1.069-2.85-.414.038-.644.524-.707.986-.11.81-.445 1.718-1 2.327-.708.777-1.178 1.432-1.728 2.118-.342.426-1.143.606-1.718.682" stroke="#9FA0A1" stroke-linecap="square" stroke-linejoin="round"/>
    <path clip-rule="evenodd" d="m1.892 12.19.838.075a.655.655 0 0 0 .718-.58l.423-4.454a.647.647 0 0 0-.597-.697l-.839-.075a.655.655 0 0 0-.718.58l-.423 4.454a.646.646 0 0 0 .598.697z" stroke="#9FA0A1" stroke-linecap="square" stroke-linejoin="round"/>
    <path d="M9.81 6.457c.48.391 1.557.48 1.557.48s2.324.165 2.418.943c.093.778-1.116 1.11-1.116 1.11s1.067 1.287-.613 1.612c0 0 1.61 1.184-.55 1.665 0 0 1.61 1.702-1.344 1.407-2.953-.295-3.06-1.24-6.934-2.052" stroke="#9FA0A1" stroke-linejoin="bevel"/>
</svg>
