<svg width="23" height="23" fill="none" xmlns="http://www.w3.org/2000/svg">
    <path fill-rule="evenodd" clip-rule="evenodd" d="M17.614 17.665 21 21V6.559C21 4.593 19.429 3 17.49 3H5.51C3.57 3 2 4.593 2 6.559v7.547c0 1.966 1.571 3.56 3.51 3.56h12.104z" fill="#fff" fill-opacity=".01"/>
    <path clip-rule="evenodd" d="M17.614 17.665 21 21V6.559C21 4.593 19.429 3 17.49 3H5.51C3.57 3 2 4.593 2 6.559v7.547c0 1.966 1.571 3.56 3.51 3.56h12.104z" stroke="#404244" stroke-linecap="square" stroke-linejoin="round"/>
    <path d="M10.821 13.188H7M16 7.563H7M13 10.375H7" stroke="#404244" stroke-linecap="square" stroke-linejoin="round"/>
</svg>
