<svg width="31" height="34" fill="none" xmlns="http://www.w3.org/2000/svg">
    <path d="M22 6.429V0l9 9h-5.143C22.771 9 22 7.286 22 6.429z" fill="#C4C4C4"/>
    <path opacity=".45" fill-rule="evenodd" clip-rule="evenodd" d="M8.391 0a3 3 0 0 0-3 3v27.696a3 3 0 0 0 3 3H28a3 3 0 0 0 3-3V9.435L21.565 0H8.391zm18.565 0c1.97 0 3.04.666 3.575 1.39A2.998 2.998 0 0 0 28 0h-1.044z" fill="#C4C4C4"/>
    <rect y="15" width="22" height="15" rx="1" fill="#FFA360"/>
    <path d="M4.572 25H5.65v-1.65h.905c1.17 0 1.851-.7 1.851-1.716 0-1.012-.668-1.725-1.824-1.725H4.572V25zm1.077-2.513v-1.698h.726c.621 0 .922.338.922.845 0 .505-.301.853-.917.853h-.731zM9.105 25h1.076v-1.65h.905c1.17 0 1.852-.7 1.852-1.716 0-1.012-.669-1.725-1.825-1.725H9.105V25zm1.076-2.513v-1.698h.726c.621 0 .922.338.922.845 0 .505-.3.853-.917.853h-.731zm3.262-1.69h1.559V25h1.063v-4.203h1.559v-.888h-4.181v.888z" fill="#fff"/>
</svg>
