<svg width="10" height="10" fill="none" xmlns="http://www.w3.org/2000/svg">
    <path fill-rule="evenodd" clip-rule="evenodd" d="M3.368 4.486s1.182-.922 1.437-1.373c.254-.451.741-1.325.853-1.774.11-.448 1.228-.55 1.103.53-.125 1.081-.459 1.037-.459 1.36 0 .323-.069 1.114.23 1.257.3.144 2.145.196 2.236.514.09.318-.409.948-.59.948-.18 0 .54.501.344.662-.195.162-.577.343-.577.343s.351.429.233.611c-.117.183-.605.37-.605.37s.275.617.073.745c-.203.129-1.458.125-1.833 0-.375-.124-2.164-.936-2.445-.936h-.911c-.071 0 .012.303-.464.192-.477-.111-.789-.28-.71-.802.079-.523.353-2.547.353-2.547s.577-.346.82-.173c.244.173.912.073.912.073z" fill="#00ACF1"/>
    <path d="M6.158 5.195c.466-.48.249-1.085.172-1.303-.099-.283-.105-.523-.028-.663.083-.15.245-.457.317-.609.405-.85-.132-1.775-.648-1.727-.251.023-.39.318-.429.598-.067.49-.27 1.041-.606 1.41-.429.47-.713.868-1.047 1.284-.207.258-.692.367-1.041.413" stroke="#404244" stroke-width=".6" stroke-linecap="square" stroke-linejoin="round"/>
    <path clip-rule="evenodd" d="m1.646 7.888.508.045c.22.02.416-.137.436-.35l.256-2.7a.392.392 0 0 0-.362-.423l-.508-.045a.397.397 0 0 0-.435.35l-.257 2.7a.392.392 0 0 0 .362.423z" stroke="#404244" stroke-width=".6" stroke-linecap="square" stroke-linejoin="round"/>
    <path d="M6.445 4.413c.292.237.944.291.944.291s1.409.1 1.465.572c.057.471-.676.672-.676.672s.647.78-.371.977c0 0 .975.718-.334 1.01 0 0 .976 1.031-.814.852-1.79-.179-1.855-.751-4.202-1.243" stroke="#404244" stroke-width=".6" stroke-linejoin="bevel"/>
</svg>
